<?xml version="1.0" encoding="UTF-8" standalone="no"?>
<svg
   xmlns:dc="http://purl.org/dc/elements/1.1/"
   xmlns:cc="http://creativecommons.org/ns#"
   xmlns:rdf="http://www.w3.org/1999/02/22-rdf-syntax-ns#"
   xmlns:svg="http://www.w3.org/2000/svg"
   xmlns="http://www.w3.org/2000/svg"
   xmlns:sodipodi="http://sodipodi.sourceforge.net/DTD/sodipodi-0.dtd"
   xmlns:inkscape="http://www.inkscape.org/namespaces/inkscape"
   width="1920"
   height="1080"
   viewBox="0 0 507.99999 285.75001"
   version="1.1"
   id="svg8"
   inkscape:version="1.0 (4035a4fb49, 2020-05-01)"
   sodipodi:docname="Task Logo WHITE.svg">
  <defs
     id="defs2">
    <rect
       x="583.71665"
       y="333.55237"
       width="147.53278"
       height="428.70032"
       id="rect859" />
  </defs>
  <sodipodi:namedview
     inkscape:pagecheckerboard="true"
     id="base"
     pagecolor="#ffffff"
     bordercolor="#666666"
     borderopacity="1.0"
     inkscape:pageopacity="0.0"
     inkscape:pageshadow="2"
     inkscape:zoom="0.24748737"
     inkscape:cx="1409.6402"
     inkscape:cy="187.74907"
     inkscape:document-units="mm"
     inkscape:current-layer="text869"
     inkscape:document-rotation="0"
     showgrid="false"
     units="px"
     inkscape:window-width="1920"
     inkscape:window-height="1017"
     inkscape:window-x="-8"
     inkscape:window-y="-8"
     inkscape:window-maximized="1" />
  <metadata
     id="metadata5">
    <rdf:RDF>
      <cc:Work
         rdf:about="">
        <dc:format>image/svg+xml</dc:format>
        <dc:type
           rdf:resource="http://purl.org/dc/dcmitype/StillImage" />
        <dc:title></dc:title>
      </cc:Work>
    </rdf:RDF>
  </metadata>
  <g
     inkscape:label="Layer 1"
     inkscape:groupmode="layer"
     id="layer1">
    <text
       xml:space="preserve"
       id="text857"
       style="line-height:1.25;font-family:sans-serif;font-size:6.35px;white-space:pre;shape-inside:url(#rect859);" />
    <g
       aria-label="ITask"
       id="text869"
       style="font-style:normal;font-variant:normal;font-weight:normal;font-stretch:normal;font-size:204.967px;line-height:1.25;font-family:'Rage Italic';-inkscape-font-specification:'Rage Italic, ';stroke-width:0.264582">
      <path
         d="m 42.292646,68.85937 h 23.16127 L 34.5039,214.18097 H 11.34263 Z"
         style="font-style:italic;font-variant:normal;font-weight:600;font-stretch:normal;font-family:Raleway;-inkscape-font-specification:'Raleway Semi-Bold Italic';stroke-width:0.264582;fill:#fd7701;fill-opacity:1"
         id="path871" />
      <path
         d="M 187.09862,88.946135 H 138.72641 V 214.18097 H 115.56514 V 88.946135 H 66.987966 V 68.654403 H 187.09862 Z"
         style="font-style:normal;font-variant:normal;font-weight:600;font-stretch:normal;font-family:Raleway;-inkscape-font-specification:'Raleway Semi-Bold';stroke-width:0.264582;fill:#ffffff"
         id="path873" />
      <path
         d="m 209.61618,216.23064 q -7.78875,0 -14.55266,-2.4596 -6.55894,-2.66458 -11.47815,-7.17385 -4.71424,-4.50927 -7.58378,-10.65828 -2.66457,-6.14901 -2.66457,-13.32286 0,-7.58378 3.27947,-13.73279 3.27947,-6.14901 9.22352,-10.65828 6.14901,-4.50927 14.34769,-6.96888 8.40364,-2.4596 18.44703,-2.4596 7.58377,0 14.96259,1.43477 7.37881,1.2298 13.32285,3.48444 v -7.37882 q 0,-11.88808 -6.76391,-18.44703 -6.76391,-6.76391 -19.47186,-6.76391 -8.60862,0 -17.01227,3.27948 -8.19868,3.0745 -17.01226,9.01854 L 179.691,119.07628 q 20.70166,-13.93775 43.04307,-13.93775 22.13643,0 34.43445,11.27318 12.29802,11.27319 12.29802,32.38479 v 38.73876 q 0,7.17384 5.94404,7.37881 v 19.2669 q -3.27947,0.6149 -5.73907,0.81987 -2.25464,0.20496 -4.50928,0.20496 -6.55894,0 -10.24835,-3.27947 -3.48444,-3.27947 -4.3043,-8.40364 l -0.6149,-6.76392 q -7.17385,9.42849 -17.83213,14.55266 -10.45332,4.91921 -22.54637,4.91921 z m 6.14901,-16.60233 q 8.19868,0 15.37252,-2.86954 7.37881,-3.0745 11.47815,-8.40364 4.30431,-3.68941 4.30431,-7.78875 v -14.14272 q -5.73908,-2.25464 -12.29802,-3.48444 -6.35398,-1.2298 -12.50299,-1.2298 -12.09305,0 -19.88179,5.32914 -7.58378,5.12418 -7.58378,13.73279 0,7.99371 5.94404,13.52782 5.94404,5.32914 15.16756,5.32914 z"
         style="font-style:normal;font-variant:normal;font-weight:600;font-stretch:normal;font-family:Raleway;-inkscape-font-specification:'Raleway Semi-Bold';stroke-width:0.264582;fill:#ffffff"
         id="path875" />
      <path
         d="m 335.76375,216.23064 q -12.91292,0 -25.82584,-4.09934 -12.70795,-4.30431 -21.93147,-12.09305 l 9.01855,-14.34769 q 9.63345,6.96887 19.06193,10.65828 9.42848,3.48444 19.2669,3.48444 10.04338,0 15.78246,-3.89437 5.94404,-3.89438 5.94404,-11.06822 0,-6.76391 -6.55894,-9.83842 -6.55895,-3.0745 -20.4967,-6.76391 -10.04338,-2.66457 -17.21723,-5.12417 -7.17384,-2.45961 -11.68312,-5.73908 -4.50927,-3.27947 -6.55894,-7.58378 -2.04967,-4.3043 -2.04967,-10.45331 0,-8.19868 3.0745,-14.55266 3.27947,-6.35398 8.81358,-10.65828 5.73908,-4.50928 13.32286,-6.76392 7.58378,-2.25463 16.39736,-2.25463 12.09305,0 22.54637,3.6894 10.45331,3.68941 18.65199,10.65829 l -9.63344,13.52782 q -14.9626,-11.88809 -31.76989,-11.88809 -8.60861,0 -14.55266,3.68941 -5.73907,3.48444 -5.73907,11.27318 0,3.27948 1.2298,5.53411 1.2298,2.25464 3.89437,3.89438 2.86954,1.63973 7.17385,3.0745 4.50927,1.2298 11.06822,2.86954 10.86325,2.66457 18.65199,5.32914 7.99372,2.66457 13.11789,6.35398 5.12417,3.48444 7.58378,8.40364 2.4596,4.71425 2.4596,11.47816 0,15.37252 -11.68312,24.39107 -11.47815,8.81358 -31.35995,8.81358 z"
         style="font-style:normal;font-variant:normal;font-weight:600;font-stretch:normal;font-family:Raleway;-inkscape-font-specification:'Raleway Semi-Bold';stroke-width:0.264582;fill:#f9f9f9"
         id="path877" />
      <path
         d="m 473.11084,214.18097 -34.22949,-49.39705 -17.83213,16.8073 v 32.58975 H 398.50286 V 64.555063 h 22.54636 V 159.45478 L 470.2413,107.1882 h 24.59604 l -41.6083,44.88777 43.86294,62.105 z"
         style="font-style:normal;font-variant:normal;font-weight:600;font-stretch:normal;font-family:Raleway;-inkscape-font-specification:'Raleway Semi-Bold';stroke-width:0.264582;fill:#ffffff"
         id="path879" />
    </g>
  </g>
</svg>
