<?xml version="1.0" encoding="UTF-8" standalone="no"?>
<svg
   xmlns:dc="http://purl.org/dc/elements/1.1/"
   xmlns:cc="http://creativecommons.org/ns#"
   xmlns:rdf="http://www.w3.org/1999/02/22-rdf-syntax-ns#"
   xmlns:svg="http://www.w3.org/2000/svg"
   xmlns="http://www.w3.org/2000/svg"
   xmlns:sodipodi="http://sodipodi.sourceforge.net/DTD/sodipodi-0.dtd"
   xmlns:inkscape="http://www.inkscape.org/namespaces/inkscape"
   width="1920"
   height="1920"
   viewBox="0 0 507.99999 508.00001"
   version="1.1"
   id="svg8"
   inkscape:version="1.0 (4035a4fb49, 2020-05-01)"
   sodipodi:docname="Semplicità.svg">
  <defs
     id="defs2" />
  <sodipodi:namedview
     id="base"
     pagecolor="#ffffff"
     bordercolor="#666666"
     borderopacity="1.0"
     inkscape:pageopacity="0.0"
     inkscape:pageshadow="2"
     inkscape:zoom="0.24748737"
     inkscape:cx="1997.4977"
     inkscape:cy="-79.443111"
     inkscape:document-units="mm"
     inkscape:current-layer="text869"
     inkscape:document-rotation="0"
     showgrid="false"
     inkscape:pagecheckerboard="true"
     units="px"
     inkscape:window-width="1920"
     inkscape:window-height="1017"
     inkscape:window-x="-8"
     inkscape:window-y="-8"
     inkscape:window-maximized="1" />
  <metadata
     id="metadata5">
    <rdf:RDF>
      <cc:Work
         rdf:about="">
        <dc:format>image/svg+xml</dc:format>
        <dc:type
           rdf:resource="http://purl.org/dc/dcmitype/StillImage" />
        <dc:title />
      </cc:Work>
    </rdf:RDF>
  </metadata>
  <g
     inkscape:label="Layer 1"
     inkscape:groupmode="layer"
     id="layer1">
    <path
       style="fill:#f9f9f9;stroke:#ffffff;stroke-width:3;stroke-miterlimit:4;stroke-dasharray:none"
       d="m 255.35321,364.49449 c -2.22482,-0.50337 -28.89606,-11.27585 -59.26945,-23.93889 -30.37339,-12.66303 -56.80205,-23.36245 -58.73031,-23.77652 -7.89412,-1.69508 -12.24502,-0.80681 -38.947587,7.95132 -13.575187,4.45252 -24.884943,8.09549 -25.132737,8.09549 -0.247794,0 -0.361487,-1.85462 -0.252615,-4.12136 l 0.198023,-4.12135 24.269866,-7.90928 c 26.74048,-8.71441 30.77647,-9.50277 40.26812,-7.86559 3.39562,0.58572 19.36978,6.93316 60.4752,24.03021 30.72337,12.77882 57.47074,23.57995 59.43858,24.00249 8.43713,1.81169 12.11642,1.06893 62.56899,-12.63104 25.78256,-7.00105 48.06727,-13.25039 49.52157,-13.88745 3.715,-1.62735 9.58219,-5.56947 12.22677,-8.21507 3.00935,-3.01052 59.93349,-76.23187 59.93349,-77.09228 0,-0.37295 -1.34638,-1.46809 -2.99194,-2.43364 -4.28286,-2.51303 -9.41545,-2.84889 -14.96112,-0.97901 -7.00149,2.36071 -8.44496,3.3741 -39.23076,27.54142 -6.03421,4.73695 -11.39592,9.00615 -11.91487,9.48712 -0.8039,0.74503 -0.52439,1.3298 1.8878,3.94997 4.05571,4.40539 5.62683,8.29588 5.63809,13.96141 0.0151,7.80065 -3.74446,14.2883 -11.00332,18.98575 -4.65325,3.01127 -9.129,4.28511 -19.8489,5.64915 -4.57138,0.58168 -18.18577,2.57124 -30.25422,4.42124 -14.54715,2.22998 -24.96802,3.47545 -30.91913,3.69538 -8.80965,0.3256 -9.32888,0.26305 -27.927,-3.36344 -23.35176,-4.55343 -48.20539,-9.06541 -64.61547,-11.73044 -6.83027,-1.10923 -12.89201,-2.19868 -13.47055,-2.42096 -1.28516,-0.49377 -1.9845,-2.98804 -1.37603,-4.90763 0.89329,-2.81794 2.55604,-2.75132 24.70335,0.98973 19.21022,3.24494 63.8285,11.48594 70.3845,13.00008 4.68279,1.08151 15.63733,0.67549 27.26206,-1.01041 49.61842,-7.19598 56.13351,-8.24368 58.89108,-9.47039 5.57379,-2.47949 9.05772,-6.55333 10.2209,-11.95154 1.23207,-5.71786 -3.63728,-12.55932 -10.28254,-14.44707 -3.75755,-1.0674 -24.04285,-2.10818 -51.85599,-2.66052 l -13.63938,-0.27087 -32.9056,-19.50984 c -42.96254,-25.4726 -42.46132,-25.18584 -50.19375,-28.71697 -12.62445,-5.76519 -29.0868,-10.14733 -44.35773,-11.80775 -9.31504,-1.0128 -29.39371,-0.86279 -39.42726,0.2946 -16.43697,1.89603 -33.114718,5.67161 -48.362315,10.94848 -4.293172,1.48578 -7.972878,2.70141 -8.177096,2.70141 -0.204305,0 -0.28224,-1.85565 -0.173393,-4.12372 l 0.198023,-4.12369 3.989573,-1.55026 c 10.715138,-4.1637 28.422048,-8.6503 42.803398,-10.84563 36.75577,-5.61079 70.66358,-1.3215 99.49118,12.58545 6.45715,3.11504 27.92004,15.53168 54.81174,31.70952 l 3.6123,2.17312 17.6654,-13.41081 c 28.73283,-21.81273 29.38589,-22.28336 34.26395,-24.69412 11.20358,-5.53685 21.5365,-5.46216 29.49699,0.21313 l 1.81932,1.29709 6.59854,-4.95047 c 12.16854,-9.12934 18.12318,-11.74415 26.94029,-11.83011 4.85354,-0.0473 6.21287,0.20633 9.62342,1.79523 2.18435,1.01769 4.47344,2.30511 5.08689,2.86095 1.0054,0.911 1.49877,0.81688 5.00499,-0.95486 11.31032,-5.7153 21.54201,-5.44916 30.0184,0.78078 3.1146,2.28917 7.45012,7.57442 7.45012,9.08217 0,0.42657 -2.46855,3.46672 -5.48567,6.75591 -3.01709,3.28917 -5.57693,6.23612 -5.68849,6.54878 -0.11153,0.31264 0.40981,0.76315 1.15858,1.00108 2.3664,0.752 7.6379,5.34708 8.96394,7.81371 l 1.2756,2.37283 -30.12596,38.85294 c -16.56929,21.36911 -31.65536,40.45318 -33.52462,42.40904 -3.90074,4.08144 -9.61964,8.18073 -14.59048,10.45838 -1.89012,0.86609 -25.12986,7.47632 -51.64387,14.68943 -47.11949,12.81881 -48.37233,13.11947 -55.52148,13.32402 -4.55839,0.13034 -8.83832,-0.13562 -11.35933,-0.70593 z M 382.07755,261.14307 c 31.03238,-24.34974 34.61334,-26.62513 44.57799,-28.3255 l 4.99896,-0.853 5.15158,-5.60396 c 2.83333,-3.08217 5.04457,-5.92828 4.91383,-6.32467 -0.13068,-0.39635 -1.66674,-1.60723 -3.41328,-2.69084 -6.25067,-3.87803 -14.83454,-2.92716 -23.29717,2.58074 -2.29703,1.49502 -19.36922,14.25235 -37.93821,28.34964 l -33.7618,25.63142 6.25172,0.51176 c 3.43845,0.28146 7.8974,0.74175 9.90881,1.02284 2.44008,0.341 3.98904,0.26063 4.65451,-0.24156 0.54857,-0.41392 8.62742,-6.73953 17.95306,-14.05692 z m -14.92087,-15.27962 c 20.09205,-15.24083 36.53101,-27.89843 36.53101,-28.12801 0,-0.22948 -1.49608,-0.94636 -3.32463,-1.59287 -5.90262,-2.08691 -13.39813,-0.42982 -21.07148,4.65843 -4.45218,2.95229 -68.26642,51.41487 -68.76472,52.22215 -0.18697,0.30299 4.2587,0.55085 9.8794,0.55085 h 10.21943 z m -40.53388,4.65537 c 25.19623,-19.20781 27.58431,-21.19372 26.46829,-22.01079 -4.18348,-3.06282 -12.04561,-2.50566 -19.84794,1.40652 -3.75188,1.88126 -43.33712,31.13837 -46.74361,34.54783 -0.65762,0.65819 0.35774,1.53374 4.98697,4.30033 3.19698,1.91064 6.17914,3.33774 6.62701,3.17135 0.44785,-0.16633 13.27702,-9.80327 28.50928,-21.41524 z"
       id="path863" />
    <g
       aria-label="ITask"
       id="text869"
       style="font-style:normal;font-variant:normal;font-weight:normal;font-stretch:normal;font-size:204.967px;line-height:1.25;font-family:'Rage Italic';-inkscape-font-specification:'Rage Italic, ';stroke-width:0.465965"
       transform="matrix(0.56781539,0,0,0.56781539,118.33799,75.729062)">
      <path
         d="m 42.292646,68.85937 h 23.16127 L 34.5039,214.18097 H 11.34263 Z"
         style="font-style:italic;font-variant:normal;font-weight:600;font-stretch:normal;font-family:Raleway;-inkscape-font-specification:'Raleway Semi-Bold Italic';fill:#fd7701;fill-opacity:1;stroke-width:0.465965"
         id="path871" />
      <path
         d="M 187.09862,88.946135 H 138.72641 V 214.18097 H 115.56514 V 88.946135 H 66.987966 V 68.654403 H 187.09862 Z"
         style="font-style:normal;font-variant:normal;font-weight:600;font-stretch:normal;font-family:Raleway;-inkscape-font-specification:'Raleway Semi-Bold';stroke-width:0.465965;fill:#ffffff"
         id="path873" />
      <path
         d="m 209.61618,216.23064 q -7.78875,0 -14.55266,-2.4596 -6.55894,-2.66458 -11.47815,-7.17385 -4.71424,-4.50927 -7.58378,-10.65828 -2.66457,-6.14901 -2.66457,-13.32286 0,-7.58378 3.27947,-13.73279 3.27947,-6.14901 9.22352,-10.65828 6.14901,-4.50927 14.34769,-6.96888 8.40364,-2.4596 18.44703,-2.4596 7.58377,0 14.96259,1.43477 7.37881,1.2298 13.32285,3.48444 v -7.37882 q 0,-11.88808 -6.76391,-18.44703 -6.76391,-6.76391 -19.47186,-6.76391 -8.60862,0 -17.01227,3.27948 -8.19868,3.0745 -17.01226,9.01854 L 179.691,119.07628 q 20.70166,-13.93775 43.04307,-13.93775 22.13643,0 34.43445,11.27318 12.29802,11.27319 12.29802,32.38479 v 38.73876 q 0,7.17384 5.94404,7.37881 v 19.2669 q -3.27947,0.6149 -5.73907,0.81987 -2.25464,0.20496 -4.50928,0.20496 -6.55894,0 -10.24835,-3.27947 -3.48444,-3.27947 -4.3043,-8.40364 l -0.6149,-6.76392 q -7.17385,9.42849 -17.83213,14.55266 -10.45332,4.91921 -22.54637,4.91921 z m 6.14901,-16.60233 q 8.19868,0 15.37252,-2.86954 7.37881,-3.0745 11.47815,-8.40364 4.30431,-3.68941 4.30431,-7.78875 v -14.14272 q -5.73908,-2.25464 -12.29802,-3.48444 -6.35398,-1.2298 -12.50299,-1.2298 -12.09305,0 -19.88179,5.32914 -7.58378,5.12418 -7.58378,13.73279 0,7.99371 5.94404,13.52782 5.94404,5.32914 15.16756,5.32914 z"
         style="font-style:normal;font-variant:normal;font-weight:600;font-stretch:normal;font-family:Raleway;-inkscape-font-specification:'Raleway Semi-Bold';stroke-width:0.465965;fill:#ffffff"
         id="path875" />
      <path
         d="m 335.76375,216.23064 q -12.91292,0 -25.82584,-4.09934 -12.70795,-4.30431 -21.93147,-12.09305 l 9.01855,-14.34769 q 9.63345,6.96887 19.06193,10.65828 9.42848,3.48444 19.2669,3.48444 10.04338,0 15.78246,-3.89437 5.94404,-3.89438 5.94404,-11.06822 0,-6.76391 -6.55894,-9.83842 -6.55895,-3.0745 -20.4967,-6.76391 -10.04338,-2.66457 -17.21723,-5.12417 -7.17384,-2.45961 -11.68312,-5.73908 -4.50927,-3.27947 -6.55894,-7.58378 -2.04967,-4.3043 -2.04967,-10.45331 0,-8.19868 3.0745,-14.55266 3.27947,-6.35398 8.81358,-10.65828 5.73908,-4.50928 13.32286,-6.76392 7.58378,-2.25463 16.39736,-2.25463 12.09305,0 22.54637,3.6894 10.45331,3.68941 18.65199,10.65829 l -9.63344,13.52782 q -14.9626,-11.88809 -31.76989,-11.88809 -8.60861,0 -14.55266,3.68941 -5.73907,3.48444 -5.73907,11.27318 0,3.27948 1.2298,5.53411 1.2298,2.25464 3.89437,3.89438 2.86954,1.63973 7.17385,3.0745 4.50927,1.2298 11.06822,2.86954 10.86325,2.66457 18.65199,5.32914 7.99372,2.66457 13.11789,6.35398 5.12417,3.48444 7.58378,8.40364 2.4596,4.71425 2.4596,11.47816 0,15.37252 -11.68312,24.39107 -11.47815,8.81358 -31.35995,8.81358 z"
         style="font-style:normal;font-variant:normal;font-weight:600;font-stretch:normal;font-family:Raleway;-inkscape-font-specification:'Raleway Semi-Bold';stroke-width:0.465965;fill:#ffffff"
         id="path877" />
      <path
         d="m 473.11084,214.18097 -34.22949,-49.39705 -17.83213,16.8073 v 32.58975 H 398.50286 V 64.555063 h 22.54636 V 159.45478 L 470.2413,107.1882 h 24.59604 l -41.6083,44.88777 43.86294,62.105 z"
         style="font-style:normal;font-variant:normal;font-weight:600;font-stretch:normal;font-family:Raleway;-inkscape-font-specification:'Raleway Semi-Bold';stroke-width:0.465965;fill:#ffffff"
         id="path879" />
    </g>
    <path
       sodipodi:type="star"
       style="fill:#f9f9f9;stroke:#ffffff;stroke-width:4.59999;stroke-linecap:round;stroke-linejoin:round;stroke-miterlimit:4;stroke-dasharray:none;paint-order:stroke fill markers"
       id="path3519-0"
       sodipodi:sides="4"
       sodipodi:cx="140.6962"
       sodipodi:cy="68.326587"
       sodipodi:r1="20.188566"
       sodipodi:r2="6.6622267"
       sodipodi:arg1="1.1210367"
       sodipodi:arg2="1.9064349"
       inkscape:flatsided="false"
       inkscape:rounded="3.1225e-17"
       inkscape:randomized="0"
       d="m 149.47316,86.50743 -10.97131,-11.890371 -15.9865,2.486485 11.89037,-10.971312 -2.48648,-15.986494 10.97131,11.89037 15.98649,-2.486485 -11.89037,10.971313 z" />
    <path
       d="M 99.780913,165.35541 88.8096,153.46504 l -15.986494,2.48648 11.89037,-10.97131 -2.486485,-15.9865 10.971313,11.89037 15.986496,-2.48648 -11.890372,10.97131 z"
       inkscape:randomized="0"
       inkscape:rounded="3.1225e-17"
       inkscape:flatsided="false"
       sodipodi:arg2="1.9064349"
       sodipodi:arg1="1.1210367"
       sodipodi:r2="6.6622272"
       sodipodi:r1="20.188566"
       sodipodi:cy="147.17456"
       sodipodi:cx="91.003955"
       sodipodi:sides="4"
       id="path3519-0-0"
       style="fill:#f9f9f9;stroke:#ffffff;stroke-width:4.59999;stroke-linecap:round;stroke-linejoin:round;stroke-miterlimit:4;stroke-dasharray:none;paint-order:stroke fill markers"
       sodipodi:type="star" />
  </g>
</svg>
