<?xml version="1.0" encoding="UTF-8" standalone="no"?>
<svg
   xmlns:dc="http://purl.org/dc/elements/1.1/"
   xmlns:cc="http://creativecommons.org/ns#"
   xmlns:rdf="http://www.w3.org/1999/02/22-rdf-syntax-ns#"
   xmlns:svg="http://www.w3.org/2000/svg"
   xmlns="http://www.w3.org/2000/svg"
   xmlns:sodipodi="http://sodipodi.sourceforge.net/DTD/sodipodi-0.dtd"
   xmlns:inkscape="http://www.inkscape.org/namespaces/inkscape"
   width="100mm"
   height="100mm"
   viewBox="0 0 100 100"
   version="1.1"
   id="svg8"
   inkscape:version="1.0.2 (e86c870879, 2021-01-15, custom)"
   sodipodi:docname="settings.svg">
  <defs
     id="defs2" />
  <sodipodi:namedview
     id="base"
     pagecolor="#ffffff"
     bordercolor="#666666"
     borderopacity="1.0"
     inkscape:pageopacity="0.0"
     inkscape:pageshadow="2"
     inkscape:zoom="0.98994949"
     inkscape:cx="-128.44531"
     inkscape:cy="229.23615"
     inkscape:document-units="mm"
     inkscape:current-layer="layer1"
     inkscape:document-rotation="0"
     showgrid="false"
     inkscape:pagecheckerboard="true"
     inkscape:window-width="1920"
     inkscape:window-height="1017"
     inkscape:window-x="-8"
     inkscape:window-y="-8"
     inkscape:window-maximized="1" />
  <metadata
     id="metadata5">
    <rdf:RDF>
      <cc:Work
         rdf:about="">
        <dc:format>image/svg+xml</dc:format>
        <dc:type
           rdf:resource="http://purl.org/dc/dcmitype/StillImage" />
        <dc:title></dc:title>
      </cc:Work>
    </rdf:RDF>
  </metadata>
  <g
     inkscape:label="Layer 1"
     inkscape:groupmode="layer"
     id="layer1">
    <circle
       style="fill:#ffffff;stroke-width:15;stroke-linecap:round;stroke-linejoin:round;paint-order:stroke fill markers"
       id="path833"
       cx="50"
       cy="50"
       r="50" />
    <g
       id="g930"
       transform="matrix(0.73218044,0,0,0.73373384,19.999639,19.936542)"
       style="stroke-width:0.360981">
      <g
         id="_x37_7_Essential_Icons_57_"
         style="stroke-width:0.360981">
	<path
   id="Settings"
   d="m 79.874,49.76 c -2.4,-2.3 -3.7,-5.5 -3.7,-8.8 0,-3.3 1.3,-6.4 3.7,-8.8 0.4,-0.4 0.8,-0.7 1.3,-1.1 0.7,-0.5 0.9,-1.4 0.7,-2.2 -0.8,-2.9 -2,-5.7 -3.4,-8.3 -0.4,-0.7 -1.2,-1.1 -2,-1 -0.7,0.1 -1.2,0.1 -1.7,0.1 -6.9,0 -12.5,-5.6 -12.5,-12.4 0,-0.5 0,-1.1 0.1,-1.7 0.1,-0.8 -0.3,-1.6 -1,-2 -2.6,-1.4 -5.4,-2.6 -8.3,-3.4 -0.8,-0.2 -1.7,0.1 -2.2,0.7 -0.4,0.5 -0.8,1 -1.1,1.3 -2.4,2.3 -5.5,3.6 -8.8,3.6 -3.3,0 -6.5,-1.3 -8.8,-3.6 -0.4,-0.4 -0.7,-0.8 -1.1,-1.3 -0.5,-0.7 -1.4,-0.9 -2.2,-0.7 -2.9,0.9 -5.7,2 -8.3,3.4 -0.7,0.4 -1.1,1.2 -1,2 0.1,0.7 0.1,1.2 0.1,1.7 0,6.9 -5.6,12.4 -12.5,12.4 -0.5,0 -1.1,0 -1.7,-0.1 -0.8,-0.1 -1.6,0.3 -2,1 -1.4,2.6 -2.6,5.4 -3.4,8.3 -0.2,0.8 0,1.7 0.7,2.2 0.6,0.4 1,0.8 1.3,1.1 4.9,4.8 4.9,12.7 0,17.6 -0.4,0.4 -0.8,0.7 -1.3,1.1 -0.7,0.5 -0.9,1.4 -0.7,2.2 0.9,2.9 2,5.7 3.4,8.3 0.4,0.7 1.2,1.1 2,1 0.7,-0.1 1.2,-0.1 1.7,-0.1 6.9,0 12.5,5.6 12.5,12.4 0,0.5 0,1.1 -0.1,1.7 -0.1,0.8 0.3,1.6 1,2 2.6,1.4 5.4,2.6 8.3,3.4 0.8,0.2 1.7,0 2.2,-0.7 0.4,-0.5 0.8,-1 1.1,-1.3 2.4,-2.3 5.5,-3.6 8.8,-3.6 3.3,0 6.5,1.3 8.8,3.6 0.4,0.4 0.7,0.8 1.1,1.3 0.4,0.5 1,0.8 1.6,0.8 0.2,0 0.4,0 0.6,-0.1 2.9,-0.9 5.7,-2 8.3,-3.4 0.7,-0.4 1.1,-1.2 1,-2 -0.1,-0.7 -0.1,-1.2 -0.1,-1.7 0,-6.9 5.6,-12.4 12.5,-12.4 0.5,0 1.1,0 1.7,0.1 0.8,0.1 1.6,-0.3 2,-1 1.4,-2.6 2.6,-5.4 3.4,-8.3 0.2,-0.8 0,-1.7 -0.7,-2.2 -0.5,-0.4 -1,-0.7 -1.3,-1.1 z m -4.3,8.5 c -0.3,0 -0.6,0 -0.9,0 -9.1,0 -16.5,7.4 -16.5,16.4 0,0.3 0,0.6 0,0.9 -1.6,0.8 -3.3,1.5 -5.1,2.1 -0.2,-0.2 -0.4,-0.4 -0.6,-0.6 -3.1,-3.1 -7.2,-4.8 -11.6,-4.8 -4.4,0 -8.5,1.7 -11.6,4.8 -0.2,0.2 -0.4,0.4 -0.6,0.6 -1.7,-0.6 -3.4,-1.3 -5.1,-2.1 0,-0.3 0,-0.6 0,-0.9 0,-9.1 -7.4,-16.4 -16.5,-16.4 -0.3,0 -0.6,0 -0.9,0 -0.8,-1.6 -1.5,-3.3 -2.1,-5.1 0.2,-0.2 0.4,-0.4 0.6,-0.6 6.4,-6.4 6.4,-16.8 0,-23.3 -0.2,-0.2 -0.4,-0.4 -0.6,-0.6 0.6,-1.7 1.3,-3.4 2.1,-5.1 0.3,0 0.6,0 0.9,0 9.1,0 16.5,-7.4 16.5,-16.4 0,-0.3 0,-0.6 0,-0.9 1.6,-0.8 3.3,-1.5 5.1,-2.1 0.2,0.2 0.4,0.4 0.6,0.6 3.1,3.1 7.2,4.8 11.6,4.8 4.4,0 8.5,-1.7 11.6,-4.8 0.2,-0.2 0.4,-0.4 0.6,-0.6 1.7,0.6 3.4,1.3 5.1,2.1 0,0.3 0,0.6 0,0.9 0,9.1 7.4,16.4 16.5,16.4 0.3,0 0.6,0 0.9,0 0.8,1.6 1.5,3.3 2.1,5.1 -0.2,0.2 -0.4,0.4 -0.6,0.6 -3.1,3.1 -4.8,7.2 -4.8,11.6 0,4.4 1.7,8.5 4.8,11.6 0.2,0.2 0.4,0.4 0.6,0.6 -0.6,1.9 -1.3,3.6 -2.1,5.2 z M 40.973,17.16 c -13.1,0 -23.8,10.7 -23.8,23.8 0,13.1 10.7,23.8 23.8,23.8 13.1,0 23.8,-10.7 23.8,-23.8 0,-13.1 -10.7,-23.8 -23.8,-23.8 z m 0,43.6 c -10.9,0 -19.8,-8.9 -19.8,-19.8 0,-10.9 8.9,-19.8 19.8,-19.8 10.9,0 19.8,8.9 19.8,19.8 0,10.9 -8.899,19.8 -19.8,19.8 z"
   style="stroke-width:0.360981" />

</g>
      <g
         id="g876"
         style="stroke-width:0.360981">
</g>
      <g
         id="g878"
         style="stroke-width:0.360981">
</g>
      <g
         id="g880"
         style="stroke-width:0.360981">
</g>
      <g
         id="g882"
         style="stroke-width:0.360981">
</g>
      <g
         id="g884"
         style="stroke-width:0.360981">
</g>
      <g
         id="g886"
         style="stroke-width:0.360981">
</g>
      <g
         id="g888"
         style="stroke-width:0.360981">
</g>
      <g
         id="g890"
         style="stroke-width:0.360981">
</g>
      <g
         id="g892"
         style="stroke-width:0.360981">
</g>
      <g
         id="g894"
         style="stroke-width:0.360981">
</g>
      <g
         id="g896"
         style="stroke-width:0.360981">
</g>
      <g
         id="g898"
         style="stroke-width:0.360981">
</g>
      <g
         id="g900"
         style="stroke-width:0.360981">
</g>
      <g
         id="g902"
         style="stroke-width:0.360981">
</g>
      <g
         id="g904"
         style="stroke-width:0.360981">
</g>
    </g>
  </g>
</svg>
