<?xml version="1.0" encoding="UTF-8" standalone="no"?>
<svg
   xmlns:dc="http://purl.org/dc/elements/1.1/"
   xmlns:cc="http://creativecommons.org/ns#"
   xmlns:rdf="http://www.w3.org/1999/02/22-rdf-syntax-ns#"
   xmlns:svg="http://www.w3.org/2000/svg"
   xmlns="http://www.w3.org/2000/svg"
   xmlns:sodipodi="http://sodipodi.sourceforge.net/DTD/sodipodi-0.dtd"
   xmlns:inkscape="http://www.inkscape.org/namespaces/inkscape"
   width="1920"
   height="1920"
   viewBox="0 0 507.99999 508.00001"
   version="1.1"
   id="svg8"
   inkscape:version="1.0 (4035a4fb49, 2020-05-01)"
   sodipodi:docname="Sicurezza.svg">
  <defs
     id="defs2" />
  <sodipodi:namedview
     inkscape:snap-global="false"
     id="base"
     pagecolor="#ffffff"
     bordercolor="#666666"
     borderopacity="1.0"
     inkscape:pageopacity="0.0"
     inkscape:pageshadow="2"
     inkscape:zoom="0.12374369"
     inkscape:cx="-1358.8719"
     inkscape:cy="2772.1186"
     inkscape:document-units="mm"
     inkscape:current-layer="layer1"
     inkscape:document-rotation="0"
     showgrid="false"
     inkscape:pagecheckerboard="true"
     units="px"
     inkscape:window-width="1920"
     inkscape:window-height="1017"
     inkscape:window-x="-8"
     inkscape:window-y="-8"
     inkscape:window-maximized="1" />
  <metadata
     id="metadata5">
    <rdf:RDF>
      <cc:Work
         rdf:about="">
        <dc:format>image/svg+xml</dc:format>
        <dc:type
           rdf:resource="http://purl.org/dc/dcmitype/StillImage" />
        <dc:title></dc:title>
      </cc:Work>
    </rdf:RDF>
  </metadata>
  <g
     inkscape:label="Layer 1"
     inkscape:groupmode="layer"
     id="layer1">
    <rect
       style="fill:none;stroke:#ffffff;stroke-width:15;stroke-linecap:round;stroke-linejoin:round;stroke-miterlimit:4;stroke-dasharray:none;paint-order:stroke fill markers"
       id="rect2086"
       width="332.03125"
       height="235.66676"
       x="94.62915"
       y="196.11642"
       ry="59.609829" />
    <rect
       style="fill:none;stroke:none;stroke-width:15;stroke-linecap:round;stroke-linejoin:round;stroke-miterlimit:4;stroke-dasharray:none;paint-order:stroke fill markers"
       id="rect2090"
       width="262.99323"
       height="18.174328"
       x="113.32228"
       y="90.871643"
       ry="7.4835544" />
    <path
       style="fill:none;stroke:#ffffff;stroke-width:14.9999;stroke-linecap:round;stroke-linejoin:round;stroke-miterlimit:4;stroke-dasharray:none;paint-order:stroke fill markers"
       id="path2096"
       sodipodi:type="arc"
       sodipodi:cx="260.64105"
       sodipodi:cy="-155.52353"
       sodipodi:rx="110.34236"
       sodipodi:ry="117.54503"
       sodipodi:start="0.01730535"
       sodipodi:end="3.1661812"
       sodipodi:arc-type="arc"
       d="M 370.96689,-153.48947 A 110.34236,117.54503 0 0 1 313.91593,-52.586679 110.34236,117.54503 0 0 1 203.36592,-55.053884 110.34236,117.54503 0 0 1 150.33205,-158.4135"
       transform="scale(1,-1)"
       sodipodi:open="true" />
    <rect
       transform="scale(-1,1)"
       style="fill:none;stroke:#ffffff;stroke-width:14.75;stroke-linecap:round;stroke-linejoin:round;stroke-miterlimit:4;stroke-dasharray:none;paint-order:stroke fill markers"
       id="rect2160"
       width="0.24434148"
       height="33.854748"
       x="-150.4395"
       y="158.52028"
       ry="0.6363672" />
    <g
       transform="translate(-0.2644614)"
       id="g2258" />
    <path
       d="M 275.30004,370.86942 A 14.655276,13.044684 0 0 1 260.64975,383.91409 14.655276,13.044684 0 0 1 245.9895,370.8783 m 29.31386,-71.84893 c -0.0863,0 -0.15583,0.59316 -0.15583,1.32995 v 68.09282 c 0,0.73678 0.0695,1.32993 0.15583,1.32993 0.0863,0 0.15583,-0.59315 0.15583,-1.32993 v -68.09282 c 0,-0.73679 -0.0695,-1.32995 -0.15583,-1.32995 z m -29.31715,7e-5 c -0.0864,0 -0.15583,0.59317 -0.15583,1.32993 v 68.09284 c 0,0.73676 0.0695,1.32994 0.15583,1.32994 0.0864,0 0.15582,-0.59318 0.15582,-1.32994 v -68.09284 c 0,-0.73676 -0.0695,-1.32993 -0.15582,-1.32993 z m 42.99292,-27.64937 a 28.334351,27.394527 0 0 1 -28.33435,27.39452 28.334351,27.394527 0 0 1 -28.33435,-27.39452 28.334351,27.394527 0 0 1 28.33435,-27.39454 28.334351,27.394527 0 0 1 28.33435,27.39454"
       style="fill:none;stroke:#ffffff;stroke-width:15;stroke-linecap:round;stroke-linejoin:round;stroke-miterlimit:4;stroke-dasharray:none;paint-order:stroke fill markers"
       id="path2252" />
  </g>
</svg>
